HIERARCHY
ROOT Hips
{
  OFFSET 0 0 0
  CHANNELS 6 Xposition Yposition Zposition Zrotation Xrotation Yrotation
  JOINT Spine
  {
    OFFSET 0 10.1816 0.131521
    CHANNELS 3 Zrotation Xrotation Yrotation
    JOINT Spine1
    {
      OFFSET 0 10.0835 -1.0008
      CHANNELS 3 Zrotation Xrotation Yrotation
      JOINT Spine2
      {
        OFFSET 0 9.10001 -1.37342
        CHANNELS 3 Zrotation Xrotation Yrotation
        JOINT Neck
        {
          OFFSET 0 16.6717 -2.51617
          CHANNELS 3 Zrotation Xrotation Yrotation
          JOINT Head
          {
            OFFSET 0 9.61788 1.68501
            CHANNELS 3 Zrotation Xrotation Yrotation
            End Site
            {
              OFFSET 0 0 0
            }
          }
        }
        JOINT LeftShoulder
        {
          OFFSET 4.57045 10.946 -2.62799
          CHANNELS 3 Zrotation Xrotation Yrotation
          JOINT LeftArm
          {
            OFFSET 10.5924 -0.524583 -2.23212
            CHANNELS 3 Zrotation Xrotation Yrotation
            JOINT LeftForeArm
            {
              OFFSET 27.8415 -8.94286e-05 3.74589e-05
              CHANNELS 3 Zrotation Xrotation Yrotation
              JOINT LeftHand
              {
                OFFSET 28.3288 -1.74407e-05 3.78045e-05
                CHANNELS 3 Zrotation Xrotation Yrotation
                End Site
                {
                  OFFSET 0 0 0
                }
              }
            }
          }
        }
        JOINT RightShoulder
        {
          OFFSET -4.56997 10.9462 -2.62802
          CHANNELS 3 Zrotation Xrotation Yrotation
          JOINT RightArm
          {
            OFFSET -10.5928 -0.524798 -2.2321
            CHANNELS 3 Zrotation Xrotation Yrotation
            JOINT RightForeArm
            {
              OFFSET -27.8415 -3.30792e-05 1.16763e-05
              CHANNELS 3 Zrotation Xrotation Yrotation
              JOINT RightHand
              {
                OFFSET -28.3288 0 5.5816e-05
                CHANNELS 3 Zrotation Xrotation Yrotation
                End Site
                {
                  OFFSET 0 0 0
                }
              }
            }
          }
        }
      }
    }
  }
  JOINT LeftUpLeg
  {
    OFFSET 8.20778 -6.75171 -1.59956
    CHANNELS 3 Zrotation Xrotation Yrotation
    JOINT LeftLeg
    {
      OFFSET 0 -44.3705 0.284643
      CHANNELS 3 Zrotation Xrotation Yrotation
      JOINT LeftFoot
      {
        OFFSET 0 -44.4279 -2.98219
        CHANNELS 3 Zrotation Xrotation Yrotation
        JOINT LeftToeBase
        {
          OFFSET 0 -8.72867 10.7106
          CHANNELS 3 Zrotation Xrotation Yrotation
          End Site
          {
            OFFSET 0 0 0
          }
        }
      }
    }
  }
  JOINT RightUpLeg
  {
    OFFSET -8.2078 -6.75166 -1.59956
    CHANNELS 3 Zrotation Xrotation Yrotation
    JOINT RightLeg
    {
      OFFSET 0 -44.3705 0.286156
      CHANNELS 3 Zrotation Xrotation Yrotation
      JOINT RightFoot
      {
        OFFSET 0 -44.4277 -2.98379
        CHANNELS 3 Zrotation Xrotation Yrotation
        JOINT RightToeBase
        {
          OFFSET 0 -8.72867 10.7106
          CHANNELS 3 Zrotation Xrotation Yrotation
          End Site
          {
            OFFSET 0 0 0
          }
        }
      }
    }
  }
}
MOTION
Frames:	11
Frame Time:	0.0333333
0.167654 94.5486 1.84334 -3.91139 5.23436 3.45555 2.29135 4.9523 1.04328 1.74627 9.93676 2.50009 1.74627 9.93676 2.50008 -0.43787 -7.47296 -3.20202 -5.35606 -13.37 -8.63295 -9.10884 1.26457 -1.03947 -65.0894 -6.44913 26.2769 1.50588 11.1412 -104.204 2.72365 10.8513 -20.7782 9.48071 1.76639 5.84323 54.5158 -5.48373 -10.5355 3.19693 4.68705 88.9202 2.42092 -0.268136 5.81165 -0.513748 -39.4909 4.2734 160.037 78.7857 -147.014 4.6886 -14.557 0.356828 -6.61943 -0.559372 -2.97219 5.07043 -21.2406 -4.15013 -2.41384 49.8142 2.12875 0.160848 -23.4061 0.0252955 -1.66415 -10.6158 12.6769 
1.19878 94.552 15.4748 -2.34857 6.12498 -0.144453 1.29728 4.80371 1.6105 -0.345146 9.60492 3.50431 -0.345145 9.60493 3.50431 1.31029 -9.03024 -3.24656 -5.45553 -13.3936 -8.4835 -5.68045 0.289926 0.449315 -64.7093 -9.61265 32.8534 3.78831 14.1144 -94.2209 5.96085 14.0224 -24.8884 5.85553 1.09292 4.60355 50.3136 -6.21532 -7.99256 3.00184 4.72394 87.3397 1.17358 -1.35256 5.912 -3.00932 -54.154 -0.494744 170.771 73.0154 -154.716 -1.19399 -7.38662 -0.327761 -6.33602 -0.54948 -2.84196 3.37784 -9.43111 -3.064 -2.99701 42.4498 4.11159 -1.24499 -22.9265 -0.216804 0.448673 -17.2079 9.24239 
2.01624 94.486 29.2537 0.445212 7.46287 -1.74652 0.00580543 4.72585 2.07872 -2.27515 9.41155 4.17134 -2.27515 9.41155 4.17134 2.97184 -12.2564 -3.68089 -5.09756 -12.8746 -8.4204 -2.38788 -0.36825 1.05153 -61.7388 -11.4684 38.4957 4.25179 22.1632 -78.862 10.5936 19.9557 -27.0387 2.87474 0.721424 4.46985 43.2275 -7.36298 -11.1096 0.337107 8.85682 80.2024 6.2804 2.43458 6.39026 -5.12278 -64.1598 -3.11062 173.948 80.556 -156.722 -1.40399 -3.71148 -1.04466 -5.58962 -0.517275 -2.50001 -0.501557 3.21153 -3.93781 -2.20742 30.5324 2.45636 1.0198 -16.4934 0.0316025 1.01584 -25.5623 9.63166 
2.67072 93.555 42.7576 3.07606 8.74501 -0.479014 -0.81875 4.42676 2.18037 -3.17907 8.79469 4.40256 -3.17907 8.79469 4.40256 1.70218 -13.1262 -4.89169 -4.17042 -11.4297 -8.84948 -0.757043 -0.194086 -1.82229 -55.4044 -12.0891 49.7373 3.32724 31.4867 -70.2614 16.9812 21.9165 -30.3718 0.979006 0.493373 3.65574 36.4876 -7.07756 -21.7762 -2.59243 15.9235 73.4782 4.88928 7.92777 10.7934 -8.8967 -70.2139 -4.75536 -14.9012 84.0488 30.1154 1.69405 -6.62335 -1.17638 -4.53434 -0.456765 -2.01936 -3.90059 18.4217 -7.04015 -0.236037 11.467 3.18505 6.85596 2.89635 -0.664376 -1.67649 -39.0681 7.71475 
3.32579 91.3214 55.5695 3.3471 9.2985 3.03249 -0.80538 4.1037 2.2057 -2.97535 8.13018 5.09931 -2.97535 8.13017 5.09931 0.0558202 -14.1578 -6.36081 -2.86696 -9.11177 -9.46041 3.14592 -0.326099 -4.74167 -50.097 -9.63036 57.5662 2.55269 40.1088 -65.9023 16.104 21.9064 -34.0727 -0.933573 0.138572 0.342143 34.5552 -5.68385 -34.7884 -3.93355 20.0476 71.1283 1.34167 9.70585 16.6102 -14.4318 -72.0906 -8.81689 -9.00647 64.6183 21.3315 1.20552 -5.60482 -1.5204 -3.3226 -0.365797 -1.47193 -1.78787 29.4998 -8.91158 -1.8755 -3.9506 -0.237266 26.6291 32.3406 -9.83291 -12.785 -56.5343 1.3706 
4.04698 89.382 68.5004 0.968305 8.43112 6.51374 -0.132783 4.38805 1.79135 -2.0964 8.7158 5.15211 -2.0964 8.71581 5.15212 -0.277081 -16.3305 -7.04205 -1.17519 -7.34167 -9.29686 9.17175 -0.748109 -7.07185 -50.1315 -7.56173 61.0427 1.51049 47.5599 -59.2619 24.369 21.763 -30.6488 -2.88051 0.0254145 -1.5054 37.7972 -5.14501 -44.361 -5.64155 23.4788 67.8683 -3.24316 11.9258 22.2788 -14.1136 -68.2596 -9.0973 -5.63629 43.8797 16.5832 -5.49868 -6.73637 -1.15075 -2.10958 -0.251903 -0.929267 0.427328 15.469 -7.43367 -4.61439 32.9424 0.704864 34.5968 31.6869 -12.8203 0.720017 -3.88986 7.90943 
4.80207 87.9915 81.0977 -1.4362 7.30876 6.6989 -0.134714 5.17953 1.56025 -1.2034 10.3311 4.14035 -1.2034 10.3311 4.14034 1.04829 -19.0621 -6.56288 0.260431 -6.68778 -8.05084 11.5057 -0.686192 -10.0682 -57.4138 -10.9073 58.9847 -5.0538 43.1329 -34.2274 40.2192 18.5894 -34.0893 -1.34453 0.291069 1.14673 42.2642 -6.3422 -47.4446 -5.88032 26.3803 60.5121 -10.5765 13.1012 30.2054 -11.0405 -62.2334 -7.57009 -0.506949 27.149 15.4161 -11.7604 -9.50779 -0.82743 -1.04971 -0.133843 -0.459964 1.80954 -2.7807 -8.81181 -18.8438 71.3269 14.4476 21.2163 21.7313 -7.73573 0.804359 0.478538 3.27979 
5.60876 85.9854 93.7142 -2.22238 7.43619 3.98138 -0.646201 5.42001 1.67666 -1.26131 10.8214 3.21913 -1.26131 10.8214 3.21913 3.12023 -21.4886 -5.33413 1.46342 -6.30028 -6.24206 7.27775 0.227287 -11.9328 -59.1274 -12.2244 55.7207 -8.34983 39.1581 -22.9649 40.868 21.228 -27.8006 4.08829 1.10687 5.78881 45.4768 -8.96276 -46.1413 -3.32885 25.7231 53.103 -16.8776 12.2571 34.4986 -9.25481 -61.8901 -8.74161 2.33269 30.9378 17.2497 -13.1562 -4.43854 0.00491633 -0.297213 -0.0395696 -0.129724 2.65209 -25.7242 -9.85325 -141.163 74.1821 125.627 14.9139 11.7973 -4.96397 -0.0294849 1.01261 0.558096 
6.14197 82.549 105.096 -0.938672 7.73552 2.14369 -1.44356 5.70186 1.08597 -1.7018 11.3874 1.91508 -1.7018 11.3875 1.91508 2.52258 -23.7106 -4.59564 2.43823 -6.42382 -5.17417 -0.339907 1.36422 -12.1614 -59.5132 -10.8234 48.7573 -6.87635 38.2633 -28.2954 36.3856 23.7934 -13.2205 9.10564 2.05496 8.8268 51.0725 -12.8483 -36.4404 -0.852113 17.7876 46.9971 -22.2644 9.39218 33.9323 -11.2876 -66.9341 -11.2552 0.176201 47.2514 21.0287 -2.97963 6.73057 0.42237 -0.0165449 0.00650303 -0.00170509 1.28862 -48.4086 -10.8645 -157.027 61.7685 136.172 4.04105 4.64321 -3.42044 -0.0049405 0.0283911 0.00256044 
6.20254 80.0838 115.228 -0.596207 7.29566 2.63631 -1.31731 6.64253 0.162995 -1.12595 13.2679 0.515821 -1.12595 13.2679 0.515821 -0.582433 -25.532 -4.94894 2.50701 -7.29854 -5.34999 -8.44913 2.30553 -10.7817 -62.2247 -6.96046 25.4515 -6.13072 25.4163 -19.3701 38.7466 11.489 -17.8426 13.7069 2.66643 9.28376 57.7368 -14.5982 -19.6793 0.524158 6.90265 44.6582 -29.1234 3.07635 32.1433 -12.3597 -70.6016 -11.7633 -4.86469 63.8901 25.8883 1.86104 1.61817 -0.0232547 0.498121 -0.276 0.000503753 1.3396 -66.5848 -8.88179 -154.088 66.3764 134.167 -2.58506 -0.992399 -2.78709 -5.14174e-06 1.54482e-05 -1.53873e-05 
5.97409 79.502 124.472 -2.52786 7.00647 3.65567 -0.391749 6.91648 0.163793 -0.0309438 13.8232 0.448598 -0.0309487 13.8232 0.448602 -0.902247 -26.1406 -4.90211 2.06554 -7.66012 -5.30008 -14.9911 2.86089 -9.58479 -52.4439 -4.96109 1.90535 -6.14528 19.6147 -21.8477 35.7755 6.48594 -14.4883 18.5242 3.60724 10.8796 60.1581 -13.4666 -4.35016 1.0862 1.33388 51.1522 -35.4709 -0.875057 27.5172 -13.72 -69.7063 -14.0166 -2.29395 74.8209 24.2857 -0.797329 -8.61395 0.0584027 -0.00196212 0.00108026 0.00150271 18.1769 -77.1978 10.5741 -90.9514 79.8455 64.2551 5.14466 -0.746796 -1.93089 0.00061253 -0.000234447 -0.000969141 
